<?xml version="1.0" encoding="UTF-8" standalone="no"?>
<!DOCTYPE svg PUBLIC "-//W3C//DTD SVG 1.1//EN"
 "http://www.w3.org/Graphics/SVG/1.1/DTD/svg11.dtd">
<!-- Generated by graphviz version 2.43.0 (0)
 -->
<!-- Title: wordcount03 Pages: 1 -->
<svg width="100%" height="100%" xmlns="http://www.w3.org/2000/svg" xmlns:xlink="http://www.w3.org/1999/xlink">
<script type="text/ecmascript"><![CDATA[
/**
 *  SVGPan library 1.2.2
 * ======================
 *
 * Given an unique existing element with id "viewport" (or when missing, the
 * first g-element), including the library into any SVG adds the following
 * capabilities:
 *
 *  - Mouse panning
 *  - Mouse zooming (using the wheel)
 *  - Object dragging
 *
 * You can configure the behaviour of the pan/zoom/drag with the variables
 * listed in the CONFIGURATION section of this file.
 *
 * Known issues:
 *
 *  - Zooming (while panning) on Safari has still some issues
 *
 * Releases:
 *
 * 1.2.2, Tue Aug 30 17:21:56 CEST 2011, Andrea Leofreddi
 *	- Fixed viewBox on root tag (#7)
 *	- Improved zoom speed (#2)
 *
 * 1.2.1, Mon Jul  4 00:33:18 CEST 2011, Andrea Leofreddi
 *	- Fixed a regression with mouse wheel (now working on Firefox 5)
 *	- Working with viewBox attribute (#4)
 *	- Added "use strict;" and fixed resulting warnings (#5)
 *	- Added configuration variables, dragging is disabled by default (#3)
 *
 * 1.2, Sat Mar 20 08:42:50 GMT 2010, Zeng Xiaohui
 *	Fixed a bug with browser mouse handler interaction
 *
 * 1.1, Wed Feb  3 17:39:33 GMT 2010, Zeng Xiaohui
 *	Updated the zoom code to support the mouse wheel on Safari/Chrome
 *
 * 1.0, Andrea Leofreddi
 *	First release
 *
 * This code is licensed under the following BSD license:
 *
 * Copyright 2009-2017 Andrea Leofreddi <a.leofreddi@vleo.net>. All rights reserved.
 *
 * Redistribution and use in source and binary forms, with or without modification, are
 * permitted provided that the following conditions are met:
 *
 *    1. Redistributions of source code must retain the above copyright
 *       notice, this list of conditions and the following disclaimer.
 *    2. Redistributions in binary form must reproduce the above copyright
 *       notice, this list of conditions and the following disclaimer in the
 *       documentation and/or other materials provided with the distribution.
 *    3. Neither the name of the copyright holder nor the names of its
 *       contributors may be used to endorse or promote products derived from
 *       this software without specific prior written permission.
 *
 * THIS SOFTWARE IS PROVIDED BY COPYRIGHT HOLDERS AND CONTRIBUTORS ''AS IS'' AND ANY EXPRESS
 * OR IMPLIED WARRANTIES, INCLUDING, BUT NOT LIMITED TO, THE IMPLIED WARRANTIES OF MERCHANTABILITY
 * AND FITNESS FOR A PARTICULAR PURPOSE ARE DISCLAIMED. IN NO EVENT SHALL COPYRIGHT HOLDERS OR
 * CONTRIBUTORS BE LIABLE FOR ANY DIRECT, INDIRECT, INCIDENTAL, SPECIAL, EXEMPLARY, OR
 * CONSEQUENTIAL DAMAGES (INCLUDING, BUT NOT LIMITED TO, PROCUREMENT OF SUBSTITUTE GOODS OR
 * SERVICES; LOSS OF USE, DATA, OR PROFITS; OR BUSINESS INTERRUPTION) HOWEVER CAUSED AND ON
 * ANY THEORY OF LIABILITY, WHETHER IN CONTRACT, STRICT LIABILITY, OR TORT (INCLUDING
 * NEGLIGENCE OR OTHERWISE) ARISING IN ANY WAY OUT OF THE USE OF THIS SOFTWARE, EVEN IF
 * ADVISED OF THE POSSIBILITY OF SUCH DAMAGE.
 *
 * The views and conclusions contained in the software and documentation are those of the
 * authors and should not be interpreted as representing official policies, either expressed
 * or implied, of Andrea Leofreddi.
 */

"use strict";

/// CONFIGURATION
/// ====>

var enablePan = 1; // 1 or 0: enable or disable panning (default enabled)
var enableZoom = 1; // 1 or 0: enable or disable zooming (default enabled)
var enableDrag = 0; // 1 or 0: enable or disable dragging (default disabled)
var zoomScale = 0.2; // Zoom sensitivity

/// <====
/// END OF CONFIGURATION

var root = document.documentElement;

var state = 'none', svgRoot = null, stateTarget, stateOrigin, stateTf;

setupHandlers(root);

/**
 * Register handlers
 */
function setupHandlers(root){
	setAttributes(root, {
		"onmouseup" : "handleMouseUp(evt)",
		"onmousedown" : "handleMouseDown(evt)",
		"onmousemove" : "handleMouseMove(evt)",
		//"onmouseout" : "handleMouseUp(evt)", // Decomment this to stop the pan functionality when dragging out of the SVG element
	});

	if(navigator.userAgent.toLowerCase().indexOf('webkit') >= 0)
		window.addEventListener('mousewheel', handleMouseWheel, false); // Chrome/Safari
	else
		window.addEventListener('DOMMouseScroll', handleMouseWheel, false); // Others
}

/**
 * Retrieves the root element for SVG manipulation. The element is then cached into the svgRoot global variable.
 */
function getRoot(root) {
	if(svgRoot == null) {
		var r = root.getElementById("viewport") ? root.getElementById("viewport") : root.documentElement, t = r;

		while(t != root) {
			if(t.getAttribute("viewBox")) {
				setCTM(r, t.getCTM());

				t.removeAttribute("viewBox");
			}

			t = t.parentNode;
		}

		svgRoot = r;
	}

	return svgRoot;
}

/**
 * Instance an SVGPoint object with given event coordinates.
 */
function getEventPoint(evt) {
	var p = root.createSVGPoint();

	p.x = evt.clientX;
	p.y = evt.clientY;

	return p;
}

/**
 * Sets the current transform matrix of an element.
 */
function setCTM(element, matrix) {
	var s = "matrix(" + matrix.a + "," + matrix.b + "," + matrix.c + "," + matrix.d + "," + matrix.e + "," + matrix.f + ")";

	element.setAttribute("transform", s);
}

/**
 * Dumps a matrix to a string (useful for debug).
 */
function dumpMatrix(matrix) {
	var s = "[ " + matrix.a + ", " + matrix.c + ", " + matrix.e + "\n  " + matrix.b + ", " + matrix.d + ", " + matrix.f + "\n  0, 0, 1 ]";

	return s;
}

/**
 * Sets attributes of an element.
 */
function setAttributes(element, attributes){
	for (var i in attributes)
		element.setAttributeNS(null, i, attributes[i]);
}

/**
 * Handle mouse wheel event.
 */
function handleMouseWheel(evt) {
	if(!enableZoom)
		return;

	if(evt.preventDefault)
		evt.preventDefault();

	evt.returnValue = false;

	var svgDoc = evt.target.ownerDocument;

	var delta;

	if(evt.wheelDelta)
		delta = evt.wheelDelta / 360; // Chrome/Safari
	else
		delta = evt.detail / -9; // Mozilla

	var z = Math.pow(1 + zoomScale, delta);

	var g = getRoot(svgDoc);
	
	var p = getEventPoint(evt);

	p = p.matrixTransform(g.getCTM().inverse());

	// Compute new scale matrix in current mouse position
	var k = root.createSVGMatrix().translate(p.x, p.y).scale(z).translate(-p.x, -p.y);

        setCTM(g, g.getCTM().multiply(k));

	if(typeof(stateTf) == "undefined")
		stateTf = g.getCTM().inverse();

	stateTf = stateTf.multiply(k.inverse());
}

/**
 * Handle mouse move event.
 */
function handleMouseMove(evt) {
	if(evt.preventDefault)
		evt.preventDefault();

	evt.returnValue = false;

	var svgDoc = evt.target.ownerDocument;

	var g = getRoot(svgDoc);

	if(state == 'pan' && enablePan) {
		// Pan mode
		var p = getEventPoint(evt).matrixTransform(stateTf);

		setCTM(g, stateTf.inverse().translate(p.x - stateOrigin.x, p.y - stateOrigin.y));
	} else if(state == 'drag' && enableDrag) {
		// Drag mode
		var p = getEventPoint(evt).matrixTransform(g.getCTM().inverse());

		setCTM(stateTarget, root.createSVGMatrix().translate(p.x - stateOrigin.x, p.y - stateOrigin.y).multiply(g.getCTM().inverse()).multiply(stateTarget.getCTM()));

		stateOrigin = p;
	}
}

/**
 * Handle click event.
 */
function handleMouseDown(evt) {
	if(evt.preventDefault)
		evt.preventDefault();

	evt.returnValue = false;

	var svgDoc = evt.target.ownerDocument;

	var g = getRoot(svgDoc);

	if(
		evt.target.tagName == "svg"
		|| !enableDrag // Pan anyway when drag is disabled and the user clicked on an element
	) {
		// Pan mode
		state = 'pan';

		stateTf = g.getCTM().inverse();

		stateOrigin = getEventPoint(evt).matrixTransform(stateTf);
	} else {
		// Drag mode
		state = 'drag';

		stateTarget = evt.target;

		stateTf = g.getCTM().inverse();

		stateOrigin = getEventPoint(evt).matrixTransform(stateTf);
	}
}

/**
 * Handle mouse button release event.
 */
function handleMouseUp(evt) {
	if(evt.preventDefault)
		evt.preventDefault();

	evt.returnValue = false;

	var svgDoc = evt.target.ownerDocument;

	if(state == 'pan' || state == 'drag') {
		// Quit pan mode
		state = '';
	}
}
]]></script><g id="viewport" transform="scale(0.5,0.5) translate(0,0)"><g id="graph0" class="graph" transform="scale(1 1) rotate(0) translate(4 1351)">
<title>wordcount03</title>
<polygon fill="white" stroke="transparent" points="-4,4 -4,-1351 1500.5,-1351 1500.5,4 -4,4"/>
<g id="clust1" class="cluster">
<title>cluster_L</title>
<polygon fill="none" stroke="black" points="8,-1206 8,-1339 562,-1339 562,-1206 8,-1206"/>
</g>
<!-- File: wordcount03 -->
<g id="node1" class="node">
<title>File: wordcount03</title>
<g id="a_node1"><a xlink:title="wordcount03">
<polygon fill="#f8f8f8" stroke="black" points="553.5,-1331 16.5,-1331 16.5,-1214 553.5,-1214 553.5,-1331"/>
<text text-anchor="start" x="24.5" y="-1314.2" font-family="Times,serif" font-size="16.00">File: wordcount03</text>
<text text-anchor="start" x="24.5" y="-1296.2" font-family="Times,serif" font-size="16.00">Type: inuse_space</text>
<text text-anchor="start" x="24.5" y="-1278.2" font-family="Times,serif" font-size="16.00">Time: Mar 10, 2023 at 9:07am (UTC)</text>
<text text-anchor="start" x="24.5" y="-1260.2" font-family="Times,serif" font-size="16.00">Showing nodes accounting for 25.01kB, 100% of 25.01kB total</text>
<text text-anchor="start" x="24.5" y="-1223.2" font-family="Times,serif" font-size="16.00">See https://git.io/JfYMW for how to read the graph</text>
</a>
</g>
</g>
<!-- N1 -->
<g id="node1" class="node">
<title>N1</title>
<g id="a_node1"><a xlink:title="runtime.schedule (8.65kB)">
<polygon fill="#eddbd5" stroke="#b23000" points="791.5,-844 690.5,-844 690.5,-808 791.5,-808 791.5,-844"/>
<text text-anchor="middle" x="741" y="-833.1" font-family="Times,serif" font-size="8.00">runtime</text>
<text text-anchor="middle" x="741" y="-824.1" font-family="Times,serif" font-size="8.00">schedule</text>
<text text-anchor="middle" x="741" y="-815.1" font-family="Times,serif" font-size="8.00">0 of 8.65kB (34.57%)</text>
</a>
</g>
</g>
<!-- N24 -->
<g id="node24" class="node">
<title>N24</title>
<g id="a_node24"><a xlink:title="runtime.resetspinning (4.52kB)">
<polygon fill="#ede0d7" stroke="#b25111" points="791.5,-757 690.5,-757 690.5,-721 791.5,-721 791.5,-757"/>
<text text-anchor="middle" x="741" y="-746.1" font-family="Times,serif" font-size="8.00">runtime</text>
<text text-anchor="middle" x="741" y="-737.1" font-family="Times,serif" font-size="8.00">resetspinning</text>
<text text-anchor="middle" x="741" y="-728.1" font-family="Times,serif" font-size="8.00">0 of 4.52kB (18.08%)</text>
</a>
</g>
</g>
<!-- N1&#45;&gt;N24 -->
<g id="edge15" class="edge">
<title>N1&#45;&gt;N24</title>
<g id="a_edge15"><a xlink:title="runtime.schedule &#45;&gt; runtime.resetspinning (4.52kB)">
<path fill="none" stroke="#b25111" d="M741,-807.8C741,-796.16 741,-780.55 741,-767.24"/>
<polygon fill="#b25111" stroke="#b25111" points="744.5,-767.18 741,-757.18 737.5,-767.18 744.5,-767.18"/>
</a>
</g>
<g id="a_edge15&#45;label"><a xlink:title="runtime.schedule &#45;&gt; runtime.resetspinning (4.52kB)">
<text text-anchor="middle" x="768.5" y="-778.8" font-family="Times,serif" font-size="14.00"> 4.52kB</text>
</a>
</g>
</g>
<!-- N25 -->
<g id="node25" class="node">
<title>N25</title>
<g id="a_node25"><a xlink:title="runtime.stoplockedm (4.13kB)">
<polygon fill="#ede1d9" stroke="#b25c1f" points="910.5,-757 809.5,-757 809.5,-721 910.5,-721 910.5,-757"/>
<text text-anchor="middle" x="860" y="-746.1" font-family="Times,serif" font-size="8.00">runtime</text>
<text text-anchor="middle" x="860" y="-737.1" font-family="Times,serif" font-size="8.00">stoplockedm</text>
<text text-anchor="middle" x="860" y="-728.1" font-family="Times,serif" font-size="8.00">0 of 4.13kB (16.50%)</text>
</a>
</g>
</g>
<!-- N1&#45;&gt;N25 -->
<g id="edge24" class="edge">
<title>N1&#45;&gt;N25</title>
<g id="a_edge24"><a xlink:title="runtime.schedule &#45;&gt; runtime.stoplockedm (4.13kB)">
<path fill="none" stroke="#b25c1f" d="M771.9,-807.92C781.13,-802.48 791.15,-796.25 800,-790 811.36,-781.97 823.25,-772.35 833.42,-763.7"/>
<polygon fill="#b25c1f" stroke="#b25c1f" points="835.88,-766.2 841.17,-757.02 831.31,-760.9 835.88,-766.2"/>
</a>
</g>
<g id="a_edge24&#45;label"><a xlink:title="runtime.schedule &#45;&gt; runtime.stoplockedm (4.13kB)">
<text text-anchor="middle" x="846.5" y="-778.8" font-family="Times,serif" font-size="14.00"> 4.13kB</text>
</a>
</g>
</g>
<!-- N2 -->
<g id="node2" class="node">
<title>N2</title>
<g id="a_node2"><a xlink:title="runtime.allocm (8.65kB)">
<polygon fill="#eddbd5" stroke="#b23000" points="865,-409 617,-409 617,-297 865,-297 865,-409"/>
<text text-anchor="middle" x="741" y="-385.8" font-family="Times,serif" font-size="24.00">runtime</text>
<text text-anchor="middle" x="741" y="-359.8" font-family="Times,serif" font-size="24.00">allocm</text>
<text text-anchor="middle" x="741" y="-333.8" font-family="Times,serif" font-size="24.00">4.52kB (18.08%)</text>
<text text-anchor="middle" x="741" y="-307.8" font-family="Times,serif" font-size="24.00">of 8.65kB (34.57%)</text>
</a>
</g>
</g>
<!-- NN2_0 -->
<g id="NN2_0" class="node">
<title>NN2_0</title>
<g id="a_NN2_0"><a xlink:title="4.52kB">
<polygon fill="#f8f8f8" stroke="black" points="768,-246 718,-246 714,-242 714,-210 764,-210 768,-214 768,-246"/>
<polyline fill="none" stroke="black" points="764,-242 714,-242 "/>
<polyline fill="none" stroke="black" points="764,-242 764,-210 "/>
<polyline fill="none" stroke="black" points="764,-242 768,-246 "/>
<text text-anchor="middle" x="741" y="-226.1" font-family="Times,serif" font-size="8.00">1kB</text>
</a>
</g>
</g>
<!-- N2&#45;&gt;NN2_0 -->
<g id="edge1" class="edge">
<title>N2&#45;&gt;NN2_0</title>
<g id="a_edge1"><a xlink:title="4.52kB">
<path fill="none" stroke="black" d="M741,-296.98C741,-282.87 741,-268.31 741,-256.3"/>
<polygon fill="black" stroke="black" points="744.5,-256.07 741,-246.07 737.5,-256.07 744.5,-256.07"/>
</a>
</g>
<g id="a_edge1&#45;label"><a xlink:title="4.52kB">
<text text-anchor="middle" x="768.5" y="-267.8" font-family="Times,serif" font-size="14.00"> 4.52kB</text>
</a>
</g>
</g>
<!-- N8 -->
<g id="node8" class="node">
<title>N8</title>
<g id="a_node8"><a xlink:title="runtime.mcommoninit (4.13kB)">
<polygon fill="#ede1d9" stroke="#b25c1f" points="919.5,-173 702.5,-173 702.5,-87 919.5,-87 919.5,-173"/>
<text text-anchor="middle" x="811" y="-149.8" font-family="Times,serif" font-size="24.00">runtime</text>
<text text-anchor="middle" x="811" y="-123.8" font-family="Times,serif" font-size="24.00">mcommoninit</text>
<text text-anchor="middle" x="811" y="-97.8" font-family="Times,serif" font-size="24.00">4.13kB (16.50%)</text>
</a>
</g>
</g>
<!-- N2&#45;&gt;N8 -->
<g id="edge18" class="edge">
<title>N2&#45;&gt;N8</title>
<g id="a_edge18"><a xlink:title="runtime.allocm &#45;&gt; runtime.mcommoninit (4.13kB)">
<path fill="none" stroke="#b25c1f" d="M788.08,-296.92C791.54,-291.11 794.61,-285.1 797,-279 808.85,-248.83 812.44,-212.65 813.03,-183.61"/>
<polygon fill="#b25c1f" stroke="#b25c1f" points="816.53,-183.29 813.12,-173.26 809.53,-183.23 816.53,-183.29"/>
</a>
</g>
<g id="a_edge18&#45;label"><a xlink:title="runtime.allocm &#45;&gt; runtime.mcommoninit (4.13kB)">
<text text-anchor="middle" x="839.5" y="-224.3" font-family="Times,serif" font-size="14.00"> 4.13kB</text>
</a>
</g>
</g>
<!-- N3 -->
<g id="node3" class="node">
<title>N3</title>
<g id="a_node3"><a xlink:title="github.com/pkg/profile.Start.func11 (4.05kB)">
<polygon fill="#ede2d9" stroke="#b25e22" points="980.5,-1328.5 763.5,-1328.5 763.5,-1216.5 980.5,-1216.5 980.5,-1328.5"/>
<text text-anchor="middle" x="872" y="-1305.3" font-family="Times,serif" font-size="24.00">profile</text>
<text text-anchor="middle" x="872" y="-1279.3" font-family="Times,serif" font-size="24.00">Start</text>
<text text-anchor="middle" x="872" y="-1253.3" font-family="Times,serif" font-size="24.00">func11</text>
<text text-anchor="middle" x="872" y="-1227.3" font-family="Times,serif" font-size="24.00">4.05kB (16.18%)</text>
</a>
</g>
</g>
<!-- NN3_0 -->
<g id="NN3_0" class="node">
<title>NN3_0</title>
<g id="a_NN3_0"><a xlink:title="4.05kB">
<polygon fill="#f8f8f8" stroke="black" points="899,-1159 849,-1159 845,-1155 845,-1123 895,-1123 899,-1127 899,-1159"/>
<polyline fill="none" stroke="black" points="895,-1155 845,-1155 "/>
<polyline fill="none" stroke="black" points="895,-1155 895,-1123 "/>
<polyline fill="none" stroke="black" points="895,-1155 899,-1159 "/>
<text text-anchor="middle" x="872" y="-1139.1" font-family="Times,serif" font-size="8.00">96B</text>
</a>
</g>
</g>
<!-- N3&#45;&gt;NN3_0 -->
<g id="edge2" class="edge">
<title>N3&#45;&gt;NN3_0</title>
<g id="a_edge2"><a xlink:title="4.05kB">
<path fill="none" stroke="black" d="M872,-1216.2C872,-1199.93 872,-1182.84 872,-1169.17"/>
<polygon fill="black" stroke="black" points="875.5,-1169.02 872,-1159.02 868.5,-1169.02 875.5,-1169.02"/>
</a>
</g>
<g id="a_edge2&#45;label"><a xlink:title="4.05kB">
<text text-anchor="middle" x="899.5" y="-1184.8" font-family="Times,serif" font-size="14.00"> 4.05kB</text>
</a>
</g>
</g>
<!-- N4 -->
<g id="node4" class="node">
<title>N4</title>
<g id="a_node4"><a xlink:title="runtime.startm (8.65kB)">
<polygon fill="#eddbd5" stroke="#b23000" points="791.5,-583 690.5,-583 690.5,-547 791.5,-547 791.5,-583"/>
<text text-anchor="middle" x="741" y="-572.1" font-family="Times,serif" font-size="8.00">runtime</text>
<text text-anchor="middle" x="741" y="-563.1" font-family="Times,serif" font-size="8.00">startm</text>
<text text-anchor="middle" x="741" y="-554.1" font-family="Times,serif" font-size="8.00">0 of 8.65kB (34.57%)</text>
</a>
</g>
</g>
<!-- N21 -->
<g id="node21" class="node">
<title>N21</title>
<g id="a_node21"><a xlink:title="runtime.newm (8.65kB)">
<polygon fill="#eddbd5" stroke="#b23000" points="791.5,-496 690.5,-496 690.5,-460 791.5,-460 791.5,-496"/>
<text text-anchor="middle" x="741" y="-485.1" font-family="Times,serif" font-size="8.00">runtime</text>
<text text-anchor="middle" x="741" y="-476.1" font-family="Times,serif" font-size="8.00">newm</text>
<text text-anchor="middle" x="741" y="-467.1" font-family="Times,serif" font-size="8.00">0 of 8.65kB (34.57%)</text>
</a>
</g>
</g>
<!-- N4&#45;&gt;N21 -->
<g id="edge8" class="edge">
<title>N4&#45;&gt;N21</title>
<g id="a_edge8"><a xlink:title="runtime.startm &#45;&gt; runtime.newm (8.65kB)">
<path fill="none" stroke="#b23000" stroke-width="2" d="M741,-546.8C741,-535.16 741,-519.55 741,-506.24"/>
<polygon fill="#b23000" stroke="#b23000" stroke-width="2" points="744.5,-506.18 741,-496.18 737.5,-506.18 744.5,-506.18"/>
</a>
</g>
<g id="a_edge8&#45;label"><a xlink:title="runtime.startm &#45;&gt; runtime.newm (8.65kB)">
<text text-anchor="middle" x="768.5" y="-517.8" font-family="Times,serif" font-size="14.00"> 8.65kB</text>
</a>
</g>
</g>
<!-- N5 -->
<g id="node5" class="node">
<title>N5</title>
<g id="a_node5"><a xlink:title="runtime.malg (4.21kB)">
<polygon fill="#ede1d9" stroke="#b25a1c" points="1026.5,-981 809.5,-981 809.5,-895 1026.5,-895 1026.5,-981"/>
<text text-anchor="middle" x="918" y="-957.8" font-family="Times,serif" font-size="24.00">runtime</text>
<text text-anchor="middle" x="918" y="-931.8" font-family="Times,serif" font-size="24.00">malg</text>
<text text-anchor="middle" x="918" y="-905.8" font-family="Times,serif" font-size="24.00">4.21kB (16.82%)</text>
</a>
</g>
</g>
<!-- NN5_0 -->
<g id="NN5_0" class="node">
<title>NN5_0</title>
<g id="a_NN5_0"><a xlink:title="4.21kB">
<polygon fill="#f8f8f8" stroke="black" points="945,-844 895,-844 891,-840 891,-808 941,-808 945,-812 945,-844"/>
<polyline fill="none" stroke="black" points="941,-840 891,-840 "/>
<polyline fill="none" stroke="black" points="941,-840 941,-808 "/>
<polyline fill="none" stroke="black" points="941,-840 945,-844 "/>
<text text-anchor="middle" x="918" y="-824.1" font-family="Times,serif" font-size="8.00">416B</text>
</a>
</g>
</g>
<!-- N5&#45;&gt;NN5_0 -->
<g id="edge3" class="edge">
<title>N5&#45;&gt;NN5_0</title>
<g id="a_edge3"><a xlink:title="4.21kB">
<path fill="none" stroke="black" d="M918,-894.79C918,-881.2 918,-866.5 918,-854.28"/>
<polygon fill="black" stroke="black" points="921.5,-854.27 918,-844.27 914.5,-854.27 921.5,-854.27"/>
</a>
</g>
<g id="a_edge3&#45;label"><a xlink:title="4.21kB">
<text text-anchor="middle" x="945.5" y="-865.8" font-family="Times,serif" font-size="14.00"> 4.21kB</text>
</a>
</g>
</g>
<!-- N6 -->
<g id="node6" class="node">
<title>N6</title>
<g id="a_node6"><a xlink:title="runtime.systemstack (8.27kB)">
<polygon fill="#eddcd5" stroke="#b23200" points="1117.5,-1290.5 1016.5,-1290.5 1016.5,-1254.5 1117.5,-1254.5 1117.5,-1290.5"/>
<text text-anchor="middle" x="1067" y="-1279.6" font-family="Times,serif" font-size="8.00">runtime</text>
<text text-anchor="middle" x="1067" y="-1270.6" font-family="Times,serif" font-size="8.00">systemstack</text>
<text text-anchor="middle" x="1067" y="-1261.6" font-family="Times,serif" font-size="8.00">0 of 8.27kB (33.06%)</text>
</a>
</g>
</g>
<!-- N22 -->
<g id="node22" class="node">
<title>N22</title>
<g id="a_node22"><a xlink:title="runtime.newproc.func1 (8.27kB)">
<polygon fill="#eddcd5" stroke="#b23200" points="1117.5,-1163 1016.5,-1163 1016.5,-1119 1117.5,-1119 1117.5,-1163"/>
<text text-anchor="middle" x="1067" y="-1152.6" font-family="Times,serif" font-size="8.00">runtime</text>
<text text-anchor="middle" x="1067" y="-1143.6" font-family="Times,serif" font-size="8.00">newproc</text>
<text text-anchor="middle" x="1067" y="-1134.6" font-family="Times,serif" font-size="8.00">func1</text>
<text text-anchor="middle" x="1067" y="-1125.6" font-family="Times,serif" font-size="8.00">0 of 8.27kB (33.06%)</text>
</a>
</g>
</g>
<!-- N6&#45;&gt;N22 -->
<g id="edge10" class="edge">
<title>N6&#45;&gt;N22</title>
<g id="a_edge10"><a xlink:title="runtime.systemstack &#45;&gt; runtime.newproc.func1 (8.27kB)">
<path fill="none" stroke="#b23200" stroke-width="2" d="M1067,-1254.3C1067,-1233.71 1067,-1198.83 1067,-1173.39"/>
<polygon fill="#b23200" stroke="#b23200" stroke-width="2" points="1070.5,-1173.14 1067,-1163.14 1063.5,-1173.14 1070.5,-1173.14"/>
</a>
</g>
<g id="a_edge10&#45;label"><a xlink:title="runtime.systemstack &#45;&gt; runtime.newproc.func1 (8.27kB)">
<text text-anchor="middle" x="1094.5" y="-1184.8" font-family="Times,serif" font-size="14.00"> 8.27kB</text>
</a>
</g>
</g>
<!-- N7 -->
<g id="node7" class="node">
<title>N7</title>
<g id="a_node7"><a xlink:title="runtime.newproc1 (8.27kB)">
<polygon fill="#eddcd5" stroke="#b23200" points="1117.5,-1068 1016.5,-1068 1016.5,-1032 1117.5,-1032 1117.5,-1068"/>
<text text-anchor="middle" x="1067" y="-1057.1" font-family="Times,serif" font-size="8.00">runtime</text>
<text text-anchor="middle" x="1067" y="-1048.1" font-family="Times,serif" font-size="8.00">newproc1</text>
<text text-anchor="middle" x="1067" y="-1039.1" font-family="Times,serif" font-size="8.00">0 of 8.27kB (33.06%)</text>
</a>
</g>
</g>
<!-- N7&#45;&gt;N5 -->
<g id="edge17" class="edge">
<title>N7&#45;&gt;N5</title>
<g id="a_edge17"><a xlink:title="runtime.newproc1 &#45;&gt; runtime.malg (4.21kB)">
<path fill="none" stroke="#b25a1c" d="M1043.72,-1031.81C1027.46,-1019.81 1004.9,-1003.15 983.37,-987.26"/>
<polygon fill="#b25a1c" stroke="#b25a1c" points="985.31,-984.34 975.18,-981.21 981.15,-989.97 985.31,-984.34"/>
</a>
</g>
<g id="a_edge17&#45;label"><a xlink:title="runtime.newproc1 &#45;&gt; runtime.malg (4.21kB)">
<text text-anchor="middle" x="1045.5" y="-1002.8" font-family="Times,serif" font-size="14.00"> 4.21kB</text>
</a>
</g>
</g>
<!-- N9 -->
<g id="node9" class="node">
<title>N9</title>
<g id="a_node9"><a xlink:title="runtime.allgadd (4.06kB)">
<polygon fill="#ede1d9" stroke="#b25e21" points="1261.5,-981 1044.5,-981 1044.5,-895 1261.5,-895 1261.5,-981"/>
<text text-anchor="middle" x="1153" y="-957.8" font-family="Times,serif" font-size="24.00">runtime</text>
<text text-anchor="middle" x="1153" y="-931.8" font-family="Times,serif" font-size="24.00">allgadd</text>
<text text-anchor="middle" x="1153" y="-905.8" font-family="Times,serif" font-size="24.00">4.06kB (16.24%)</text>
</a>
</g>
</g>
<!-- N7&#45;&gt;N9 -->
<g id="edge26" class="edge">
<title>N7&#45;&gt;N9</title>
<g id="a_edge26"><a xlink:title="runtime.newproc1 &#45;&gt; runtime.allgadd (4.06kB)">
<path fill="none" stroke="#b25e21" d="M1080.44,-1031.81C1089.45,-1020.29 1101.82,-1004.47 1113.79,-989.15"/>
<polygon fill="#b25e21" stroke="#b25e21" points="1116.59,-991.25 1120,-981.21 1111.08,-986.94 1116.59,-991.25"/>
</a>
</g>
<g id="a_edge26&#45;label"><a xlink:title="runtime.newproc1 &#45;&gt; runtime.allgadd (4.06kB)">
<text text-anchor="middle" x="1131.5" y="-1002.8" font-family="Times,serif" font-size="14.00"> 4.06kB</text>
</a>
</g>
</g>
<!-- NN8_0 -->
<g id="NN8_0" class="node">
<title>NN8_0</title>
<g id="a_NN8_0"><a xlink:title="4.13kB">
<polygon fill="#f8f8f8" stroke="black" points="838,-36 788,-36 784,-32 784,0 834,0 838,-4 838,-36"/>
<polyline fill="none" stroke="black" points="834,-32 784,-32 "/>
<polyline fill="none" stroke="black" points="834,-32 834,0 "/>
<polyline fill="none" stroke="black" points="834,-32 838,-36 "/>
<text text-anchor="middle" x="811" y="-16.1" font-family="Times,serif" font-size="8.00">256B</text>
</a>
</g>
</g>
<!-- N8&#45;&gt;NN8_0 -->
<g id="edge4" class="edge">
<title>N8&#45;&gt;NN8_0</title>
<g id="a_edge4"><a xlink:title="4.13kB">
<path fill="none" stroke="black" d="M811,-86.79C811,-73.2 811,-58.5 811,-46.28"/>
<polygon fill="black" stroke="black" points="814.5,-46.27 811,-36.27 807.5,-46.27 814.5,-46.27"/>
</a>
</g>
<g id="a_edge4&#45;label"><a xlink:title="4.13kB">
<text text-anchor="middle" x="838.5" y="-57.8" font-family="Times,serif" font-size="14.00"> 4.13kB</text>
</a>
</g>
</g>
<!-- NN9_0 -->
<g id="NN9_0" class="node">
<title>NN9_0</title>
<g id="a_NN9_0"><a xlink:title="4.06kB">
<polygon fill="#f8f8f8" stroke="black" points="1180,-844 1130,-844 1126,-840 1126,-808 1176,-808 1180,-812 1180,-844"/>
<polyline fill="none" stroke="black" points="1176,-840 1126,-840 "/>
<polyline fill="none" stroke="black" points="1176,-840 1176,-808 "/>
<polyline fill="none" stroke="black" points="1176,-840 1180,-844 "/>
<text text-anchor="middle" x="1153" y="-824.1" font-family="Times,serif" font-size="8.00">128B</text>
</a>
</g>
</g>
<!-- N9&#45;&gt;NN9_0 -->
<g id="edge5" class="edge">
<title>N9&#45;&gt;NN9_0</title>
<g id="a_edge5"><a xlink:title="4.06kB">
<path fill="none" stroke="black" d="M1153,-894.79C1153,-881.2 1153,-866.5 1153,-854.28"/>
<polygon fill="black" stroke="black" points="1156.5,-854.27 1153,-844.27 1149.5,-854.27 1156.5,-854.27"/>
</a>
</g>
<g id="a_edge5&#45;label"><a xlink:title="4.06kB">
<text text-anchor="middle" x="1180.5" y="-865.8" font-family="Times,serif" font-size="14.00"> 4.06kB</text>
</a>
</g>
</g>
<!-- N10 -->
<g id="node10" class="node">
<title>N10</title>
<g id="a_node10"><a xlink:title="runtime.acquireSudog (4.05kB)">
<polygon fill="#ede2d9" stroke="#b25e22" points="1496.5,-981 1279.5,-981 1279.5,-895 1496.5,-895 1496.5,-981"/>
<text text-anchor="middle" x="1388" y="-957.8" font-family="Times,serif" font-size="24.00">runtime</text>
<text text-anchor="middle" x="1388" y="-931.8" font-family="Times,serif" font-size="24.00">acquireSudog</text>
<text text-anchor="middle" x="1388" y="-905.8" font-family="Times,serif" font-size="24.00">4.05kB (16.18%)</text>
</a>
</g>
</g>
<!-- NN10_0 -->
<g id="NN10_0" class="node">
<title>NN10_0</title>
<g id="a_NN10_0"><a xlink:title="4.05kB">
<polygon fill="#f8f8f8" stroke="black" points="1415,-844 1365,-844 1361,-840 1361,-808 1411,-808 1415,-812 1415,-844"/>
<polyline fill="none" stroke="black" points="1411,-840 1361,-840 "/>
<polyline fill="none" stroke="black" points="1411,-840 1411,-808 "/>
<polyline fill="none" stroke="black" points="1411,-840 1415,-844 "/>
<text text-anchor="middle" x="1388" y="-824.1" font-family="Times,serif" font-size="8.00">96B</text>
</a>
</g>
</g>
<!-- N10&#45;&gt;NN10_0 -->
<g id="edge6" class="edge">
<title>N10&#45;&gt;NN10_0</title>
<g id="a_edge6"><a xlink:title="4.05kB">
<path fill="none" stroke="black" d="M1388,-894.79C1388,-881.2 1388,-866.5 1388,-854.28"/>
<polygon fill="black" stroke="black" points="1391.5,-854.27 1388,-844.27 1384.5,-854.27 1391.5,-854.27"/>
</a>
</g>
<g id="a_edge6&#45;label"><a xlink:title="4.05kB">
<text text-anchor="middle" x="1415.5" y="-865.8" font-family="Times,serif" font-size="14.00"> 4.05kB</text>
</a>
</g>
</g>
<!-- N11 -->
<g id="node11" class="node">
<title>N11</title>
<g id="a_node11"><a xlink:title="runtime.mstart (4.52kB)">
<polygon fill="#ede0d7" stroke="#b25111" points="791.5,-1159 690.5,-1159 690.5,-1123 791.5,-1123 791.5,-1159"/>
<text text-anchor="middle" x="741" y="-1148.1" font-family="Times,serif" font-size="8.00">runtime</text>
<text text-anchor="middle" x="741" y="-1139.1" font-family="Times,serif" font-size="8.00">mstart</text>
<text text-anchor="middle" x="741" y="-1130.1" font-family="Times,serif" font-size="8.00">0 of 4.52kB (18.08%)</text>
</a>
</g>
</g>
<!-- N19 -->
<g id="node19" class="node">
<title>N19</title>
<g id="a_node19"><a xlink:title="runtime.mstart0 (4.52kB)">
<polygon fill="#ede0d7" stroke="#b25111" points="791.5,-1068 690.5,-1068 690.5,-1032 791.5,-1032 791.5,-1068"/>
<text text-anchor="middle" x="741" y="-1057.1" font-family="Times,serif" font-size="8.00">runtime</text>
<text text-anchor="middle" x="741" y="-1048.1" font-family="Times,serif" font-size="8.00">mstart0</text>
<text text-anchor="middle" x="741" y="-1039.1" font-family="Times,serif" font-size="8.00">0 of 4.52kB (18.08%)</text>
</a>
</g>
</g>
<!-- N11&#45;&gt;N19 -->
<g id="edge11" class="edge">
<title>N11&#45;&gt;N19</title>
<g id="a_edge11"><a xlink:title="runtime.mstart &#45;&gt; runtime.mstart0 (4.52kB)">
<path fill="none" stroke="#b25111" d="M741,-1122.84C741,-1110.28 741,-1092.98 741,-1078.5"/>
<polygon fill="#b25111" stroke="#b25111" points="744.5,-1078.11 741,-1068.11 737.5,-1078.11 744.5,-1078.11"/>
</a>
</g>
<g id="a_edge11&#45;label"><a xlink:title="runtime.mstart &#45;&gt; runtime.mstart0 (4.52kB)">
<text text-anchor="middle" x="768.5" y="-1089.8" font-family="Times,serif" font-size="14.00"> 4.52kB</text>
</a>
</g>
</g>
<!-- N12 -->
<g id="node12" class="node">
<title>N12</title>
<g id="a_node12"><a xlink:title="runtime.morestack (4.13kB)">
<polygon fill="#ede1d9" stroke="#b25c1f" points="672.5,-1290.5 571.5,-1290.5 571.5,-1254.5 672.5,-1254.5 672.5,-1290.5"/>
<text text-anchor="middle" x="622" y="-1279.6" font-family="Times,serif" font-size="8.00">runtime</text>
<text text-anchor="middle" x="622" y="-1270.6" font-family="Times,serif" font-size="8.00">morestack</text>
<text text-anchor="middle" x="622" y="-1261.6" font-family="Times,serif" font-size="8.00">0 of 4.13kB (16.50%)</text>
</a>
</g>
</g>
<!-- N23 -->
<g id="node23" class="node">
<title>N23</title>
<g id="a_node23"><a xlink:title="runtime.newstack (4.13kB)">
<polygon fill="#ede1d9" stroke="#b25c1f" points="672.5,-1159 571.5,-1159 571.5,-1123 672.5,-1123 672.5,-1159"/>
<text text-anchor="middle" x="622" y="-1148.1" font-family="Times,serif" font-size="8.00">runtime</text>
<text text-anchor="middle" x="622" y="-1139.1" font-family="Times,serif" font-size="8.00">newstack</text>
<text text-anchor="middle" x="622" y="-1130.1" font-family="Times,serif" font-size="8.00">0 of 4.13kB (16.50%)</text>
</a>
</g>
</g>
<!-- N12&#45;&gt;N23 -->
<g id="edge22" class="edge">
<title>N12&#45;&gt;N23</title>
<g id="a_edge22"><a xlink:title="runtime.morestack &#45;&gt; runtime.newstack (4.13kB)">
<path fill="none" stroke="#b25c1f" d="M622,-1254.3C622,-1232.63 622,-1195.12 622,-1169.46"/>
<polygon fill="#b25c1f" stroke="#b25c1f" points="625.5,-1169.27 622,-1159.27 618.5,-1169.27 625.5,-1169.27"/>
</a>
</g>
<g id="a_edge22&#45;label"><a xlink:title="runtime.morestack &#45;&gt; runtime.newstack (4.13kB)">
<text text-anchor="middle" x="649.5" y="-1184.8" font-family="Times,serif" font-size="14.00"> 4.13kB</text>
</a>
</g>
</g>
<!-- N13 -->
<g id="node13" class="node">
<title>N13</title>
<g id="a_node13"><a xlink:title="runtime.ensureSigM.func1 (4.05kB)">
<polygon fill="#ede2d9" stroke="#b25e22" points="1438.5,-1294.5 1337.5,-1294.5 1337.5,-1250.5 1438.5,-1250.5 1438.5,-1294.5"/>
<text text-anchor="middle" x="1388" y="-1284.1" font-family="Times,serif" font-size="8.00">runtime</text>
<text text-anchor="middle" x="1388" y="-1275.1" font-family="Times,serif" font-size="8.00">ensureSigM</text>
<text text-anchor="middle" x="1388" y="-1266.1" font-family="Times,serif" font-size="8.00">func1</text>
<text text-anchor="middle" x="1388" y="-1257.1" font-family="Times,serif" font-size="8.00">0 of 4.05kB (16.18%)</text>
</a>
</g>
</g>
<!-- N15 -->
<g id="node15" class="node">
<title>N15</title>
<g id="a_node15"><a xlink:title="runtime.chansend1 (4.05kB)">
<polygon fill="#ede2d9" stroke="#b25e22" points="1438.5,-1159 1337.5,-1159 1337.5,-1123 1438.5,-1123 1438.5,-1159"/>
<text text-anchor="middle" x="1388" y="-1148.1" font-family="Times,serif" font-size="8.00">runtime</text>
<text text-anchor="middle" x="1388" y="-1139.1" font-family="Times,serif" font-size="8.00">chansend1</text>
<text text-anchor="middle" x="1388" y="-1130.1" font-family="Times,serif" font-size="8.00">0 of 4.05kB (16.18%)</text>
</a>
</g>
</g>
<!-- N13&#45;&gt;N15 -->
<g id="edge29" class="edge">
<title>N13&#45;&gt;N15</title>
<g id="a_edge29"><a xlink:title="runtime.ensureSigM.func1 &#45;&gt; runtime.chansend1 (4.05kB)">
<path fill="none" stroke="#b25e22" d="M1388,-1250.41C1388,-1228.4 1388,-1193.81 1388,-1169.64"/>
<polygon fill="#b25e22" stroke="#b25e22" points="1391.5,-1169.35 1388,-1159.35 1384.5,-1169.35 1391.5,-1169.35"/>
</a>
</g>
<g id="a_edge29&#45;label"><a xlink:title="runtime.ensureSigM.func1 &#45;&gt; runtime.chansend1 (4.05kB)">
<text text-anchor="middle" x="1415.5" y="-1184.8" font-family="Times,serif" font-size="14.00"> 4.05kB</text>
</a>
</g>
</g>
<!-- N14 -->
<g id="node14" class="node">
<title>N14</title>
<g id="a_node14"><a xlink:title="runtime.chansend (4.05kB)">
<polygon fill="#ede2d9" stroke="#b25e22" points="1438.5,-1068 1337.5,-1068 1337.5,-1032 1438.5,-1032 1438.5,-1068"/>
<text text-anchor="middle" x="1388" y="-1057.1" font-family="Times,serif" font-size="8.00">runtime</text>
<text text-anchor="middle" x="1388" y="-1048.1" font-family="Times,serif" font-size="8.00">chansend</text>
<text text-anchor="middle" x="1388" y="-1039.1" font-family="Times,serif" font-size="8.00">0 of 4.05kB (16.18%)</text>
</a>
</g>
</g>
<!-- N14&#45;&gt;N10 -->
<g id="edge27" class="edge">
<title>N14&#45;&gt;N10</title>
<g id="a_edge27"><a xlink:title="runtime.chansend &#45;&gt; runtime.acquireSudog (4.05kB)">
<path fill="none" stroke="#b25e22" d="M1388,-1031.81C1388,-1020.82 1388,-1005.91 1388,-991.26"/>
<polygon fill="#b25e22" stroke="#b25e22" points="1391.5,-991.21 1388,-981.21 1384.5,-991.21 1391.5,-991.21"/>
</a>
</g>
<g id="a_edge27&#45;label"><a xlink:title="runtime.chansend &#45;&gt; runtime.acquireSudog (4.05kB)">
<text text-anchor="middle" x="1415.5" y="-1002.8" font-family="Times,serif" font-size="14.00"> 4.05kB</text>
</a>
</g>
</g>
<!-- N15&#45;&gt;N14 -->
<g id="edge28" class="edge">
<title>N15&#45;&gt;N14</title>
<g id="a_edge28"><a xlink:title="runtime.chansend1 &#45;&gt; runtime.chansend (4.05kB)">
<path fill="none" stroke="#b25e22" d="M1388,-1122.84C1388,-1110.28 1388,-1092.98 1388,-1078.5"/>
<polygon fill="#b25e22" stroke="#b25e22" points="1391.5,-1078.11 1388,-1068.11 1384.5,-1078.11 1391.5,-1078.11"/>
</a>
</g>
<g id="a_edge28&#45;label"><a xlink:title="runtime.chansend1 &#45;&gt; runtime.chansend (4.05kB)">
<text text-anchor="middle" x="1415.5" y="-1089.8" font-family="Times,serif" font-size="14.00"> 4.05kB</text>
</a>
</g>
</g>
<!-- N16 -->
<g id="node16" class="node">
<title>N16</title>
<g id="a_node16"><a xlink:title="runtime.gopreempt_m (4.13kB)">
<polygon fill="#ede1d9" stroke="#b25c1f" points="672.5,-1068 571.5,-1068 571.5,-1032 672.5,-1032 672.5,-1068"/>
<text text-anchor="middle" x="622" y="-1057.1" font-family="Times,serif" font-size="8.00">runtime</text>
<text text-anchor="middle" x="622" y="-1048.1" font-family="Times,serif" font-size="8.00">gopreempt_m</text>
<text text-anchor="middle" x="622" y="-1039.1" font-family="Times,serif" font-size="8.00">0 of 4.13kB (16.50%)</text>
</a>
</g>
</g>
<!-- N17 -->
<g id="node17" class="node">
<title>N17</title>
<g id="a_node17"><a xlink:title="runtime.goschedImpl (4.13kB)">
<polygon fill="#ede1d9" stroke="#b25c1f" points="672.5,-956 571.5,-956 571.5,-920 672.5,-920 672.5,-956"/>
<text text-anchor="middle" x="622" y="-945.1" font-family="Times,serif" font-size="8.00">runtime</text>
<text text-anchor="middle" x="622" y="-936.1" font-family="Times,serif" font-size="8.00">goschedImpl</text>
<text text-anchor="middle" x="622" y="-927.1" font-family="Times,serif" font-size="8.00">0 of 4.13kB (16.50%)</text>
</a>
</g>
</g>
<!-- N16&#45;&gt;N17 -->
<g id="edge19" class="edge">
<title>N16&#45;&gt;N17</title>
<g id="a_edge19"><a xlink:title="runtime.gopreempt_m &#45;&gt; runtime.goschedImpl (4.13kB)">
<path fill="none" stroke="#b25c1f" d="M622,-1031.81C622,-1014.21 622,-986.61 622,-966.07"/>
<polygon fill="#b25c1f" stroke="#b25c1f" points="625.5,-966.07 622,-956.07 618.5,-966.07 625.5,-966.07"/>
</a>
</g>
<g id="a_edge19&#45;label"><a xlink:title="runtime.gopreempt_m &#45;&gt; runtime.goschedImpl (4.13kB)">
<text text-anchor="middle" x="649.5" y="-1002.8" font-family="Times,serif" font-size="14.00"> 4.13kB</text>
</a>
</g>
</g>
<!-- N17&#45;&gt;N1 -->
<g id="edge20" class="edge">
<title>N17&#45;&gt;N1</title>
<g id="a_edge20"><a xlink:title="runtime.goschedImpl &#45;&gt; runtime.schedule (4.13kB)">
<path fill="none" stroke="#b25c1f" d="M633.12,-919.73C644.15,-903.49 662.24,-879.18 682,-862 687.13,-857.54 692.91,-853.32 698.79,-849.47"/>
<polygon fill="#b25c1f" stroke="#b25c1f" points="700.78,-852.35 707.42,-844.1 697.08,-846.41 700.78,-852.35"/>
</a>
</g>
<g id="a_edge20&#45;label"><a xlink:title="runtime.goschedImpl &#45;&gt; runtime.schedule (4.13kB)">
<text text-anchor="middle" x="709.5" y="-865.8" font-family="Times,serif" font-size="14.00"> 4.13kB</text>
</a>
</g>
</g>
<!-- N18 -->
<g id="node18" class="node">
<title>N18</title>
<g id="a_node18"><a xlink:title="runtime.handoffp (4.13kB)">
<polygon fill="#ede1d9" stroke="#b25c1f" points="910.5,-670 809.5,-670 809.5,-634 910.5,-634 910.5,-670"/>
<text text-anchor="middle" x="860" y="-659.1" font-family="Times,serif" font-size="8.00">runtime</text>
<text text-anchor="middle" x="860" y="-650.1" font-family="Times,serif" font-size="8.00">handoffp</text>
<text text-anchor="middle" x="860" y="-641.1" font-family="Times,serif" font-size="8.00">0 of 4.13kB (16.50%)</text>
</a>
</g>
</g>
<!-- N18&#45;&gt;N4 -->
<g id="edge21" class="edge">
<title>N18&#45;&gt;N4</title>
<g id="a_edge21"><a xlink:title="runtime.handoffp &#45;&gt; runtime.startm (4.13kB)">
<path fill="none" stroke="#b25c1f" d="M841.17,-633.98C829.64,-623.91 814.4,-611.17 800,-601 793.91,-596.7 787.28,-592.41 780.73,-588.39"/>
<polygon fill="#b25c1f" stroke="#b25c1f" points="782.28,-585.23 771.9,-583.08 778.67,-591.23 782.28,-585.23"/>
</a>
</g>
<g id="a_edge21&#45;label"><a xlink:title="runtime.handoffp &#45;&gt; runtime.startm (4.13kB)">
<text text-anchor="middle" x="846.5" y="-604.8" font-family="Times,serif" font-size="14.00"> 4.13kB</text>
</a>
</g>
</g>
<!-- N20 -->
<g id="node20" class="node">
<title>N20</title>
<g id="a_node20"><a xlink:title="runtime.mstart1 (4.52kB)">
<polygon fill="#ede0d7" stroke="#b25111" points="791.5,-956 690.5,-956 690.5,-920 791.5,-920 791.5,-956"/>
<text text-anchor="middle" x="741" y="-945.1" font-family="Times,serif" font-size="8.00">runtime</text>
<text text-anchor="middle" x="741" y="-936.1" font-family="Times,serif" font-size="8.00">mstart1</text>
<text text-anchor="middle" x="741" y="-927.1" font-family="Times,serif" font-size="8.00">0 of 4.52kB (18.08%)</text>
</a>
</g>
</g>
<!-- N19&#45;&gt;N20 -->
<g id="edge12" class="edge">
<title>N19&#45;&gt;N20</title>
<g id="a_edge12"><a xlink:title="runtime.mstart0 &#45;&gt; runtime.mstart1 (4.52kB)">
<path fill="none" stroke="#b25111" d="M741,-1031.81C741,-1014.21 741,-986.61 741,-966.07"/>
<polygon fill="#b25111" stroke="#b25111" points="744.5,-966.07 741,-956.07 737.5,-966.07 744.5,-966.07"/>
</a>
</g>
<g id="a_edge12&#45;label"><a xlink:title="runtime.mstart0 &#45;&gt; runtime.mstart1 (4.52kB)">
<text text-anchor="middle" x="768.5" y="-1002.8" font-family="Times,serif" font-size="14.00"> 4.52kB</text>
</a>
</g>
</g>
<!-- N20&#45;&gt;N1 -->
<g id="edge13" class="edge">
<title>N20&#45;&gt;N1</title>
<g id="a_edge13"><a xlink:title="runtime.mstart1 &#45;&gt; runtime.schedule (4.52kB)">
<path fill="none" stroke="#b25111" d="M741,-919.81C741,-902.21 741,-874.61 741,-854.07"/>
<polygon fill="#b25111" stroke="#b25111" points="744.5,-854.07 741,-844.07 737.5,-854.07 744.5,-854.07"/>
</a>
</g>
<g id="a_edge13&#45;label"><a xlink:title="runtime.mstart1 &#45;&gt; runtime.schedule (4.52kB)">
<text text-anchor="middle" x="768.5" y="-865.8" font-family="Times,serif" font-size="14.00"> 4.52kB</text>
</a>
</g>
</g>
<!-- N21&#45;&gt;N2 -->
<g id="edge7" class="edge">
<title>N21&#45;&gt;N2</title>
<g id="a_edge7"><a xlink:title="runtime.newm &#45;&gt; runtime.allocm (8.65kB)">
<path fill="none" stroke="#b23000" stroke-width="2" d="M741,-459.9C741,-449.12 741,-434.44 741,-419.45"/>
<polygon fill="#b23000" stroke="#b23000" stroke-width="2" points="744.5,-419.06 741,-409.06 737.5,-419.06 744.5,-419.06"/>
</a>
</g>
<g id="a_edge7&#45;label"><a xlink:title="runtime.newm &#45;&gt; runtime.allocm (8.65kB)">
<text text-anchor="middle" x="768.5" y="-430.8" font-family="Times,serif" font-size="14.00"> 8.65kB</text>
</a>
</g>
</g>
<!-- N22&#45;&gt;N7 -->
<g id="edge9" class="edge">
<title>N22&#45;&gt;N7</title>
<g id="a_edge9"><a xlink:title="runtime.newproc.func1 &#45;&gt; runtime.newproc1 (8.27kB)">
<path fill="none" stroke="#b23200" stroke-width="2" d="M1067,-1118.91C1067,-1106.78 1067,-1091.41 1067,-1078.36"/>
<polygon fill="#b23200" stroke="#b23200" stroke-width="2" points="1070.5,-1078.07 1067,-1068.07 1063.5,-1078.07 1070.5,-1078.07"/>
</a>
</g>
<g id="a_edge9&#45;label"><a xlink:title="runtime.newproc.func1 &#45;&gt; runtime.newproc1 (8.27kB)">
<text text-anchor="middle" x="1094.5" y="-1089.8" font-family="Times,serif" font-size="14.00"> 8.27kB</text>
</a>
</g>
</g>
<!-- N23&#45;&gt;N16 -->
<g id="edge23" class="edge">
<title>N23&#45;&gt;N16</title>
<g id="a_edge23"><a xlink:title="runtime.newstack &#45;&gt; runtime.gopreempt_m (4.13kB)">
<path fill="none" stroke="#b25c1f" d="M622,-1122.84C622,-1110.28 622,-1092.98 622,-1078.5"/>
<polygon fill="#b25c1f" stroke="#b25c1f" points="625.5,-1078.11 622,-1068.11 618.5,-1078.11 625.5,-1078.11"/>
</a>
</g>
<g id="a_edge23&#45;label"><a xlink:title="runtime.newstack &#45;&gt; runtime.gopreempt_m (4.13kB)">
<text text-anchor="middle" x="649.5" y="-1089.8" font-family="Times,serif" font-size="14.00"> 4.13kB</text>
</a>
</g>
</g>
<!-- N26 -->
<g id="node26" class="node">
<title>N26</title>
<g id="a_node26"><a xlink:title="runtime.wakep (4.52kB)">
<polygon fill="#ede0d7" stroke="#b25111" points="791.5,-670 690.5,-670 690.5,-634 791.5,-634 791.5,-670"/>
<text text-anchor="middle" x="741" y="-659.1" font-family="Times,serif" font-size="8.00">runtime</text>
<text text-anchor="middle" x="741" y="-650.1" font-family="Times,serif" font-size="8.00">wakep</text>
<text text-anchor="middle" x="741" y="-641.1" font-family="Times,serif" font-size="8.00">0 of 4.52kB (18.08%)</text>
</a>
</g>
</g>
<!-- N24&#45;&gt;N26 -->
<g id="edge14" class="edge">
<title>N24&#45;&gt;N26</title>
<g id="a_edge14"><a xlink:title="runtime.resetspinning &#45;&gt; runtime.wakep (4.52kB)">
<path fill="none" stroke="#b25111" d="M741,-720.8C741,-709.16 741,-693.55 741,-680.24"/>
<polygon fill="#b25111" stroke="#b25111" points="744.5,-680.18 741,-670.18 737.5,-680.18 744.5,-680.18"/>
</a>
</g>
<g id="a_edge14&#45;label"><a xlink:title="runtime.resetspinning &#45;&gt; runtime.wakep (4.52kB)">
<text text-anchor="middle" x="768.5" y="-691.8" font-family="Times,serif" font-size="14.00"> 4.52kB</text>
</a>
</g>
</g>
<!-- N25&#45;&gt;N18 -->
<g id="edge25" class="edge">
<title>N25&#45;&gt;N18</title>
<g id="a_edge25"><a xlink:title="runtime.stoplockedm &#45;&gt; runtime.handoffp (4.13kB)">
<path fill="none" stroke="#b25c1f" d="M860,-720.8C860,-709.16 860,-693.55 860,-680.24"/>
<polygon fill="#b25c1f" stroke="#b25c1f" points="863.5,-680.18 860,-670.18 856.5,-680.18 863.5,-680.18"/>
</a>
</g>
<g id="a_edge25&#45;label"><a xlink:title="runtime.stoplockedm &#45;&gt; runtime.handoffp (4.13kB)">
<text text-anchor="middle" x="887.5" y="-691.8" font-family="Times,serif" font-size="14.00"> 4.13kB</text>
</a>
</g>
</g>
<!-- N26&#45;&gt;N4 -->
<g id="edge16" class="edge">
<title>N26&#45;&gt;N4</title>
<g id="a_edge16"><a xlink:title="runtime.wakep &#45;&gt; runtime.startm (4.52kB)">
<path fill="none" stroke="#b25111" d="M741,-633.8C741,-622.16 741,-606.55 741,-593.24"/>
<polygon fill="#b25111" stroke="#b25111" points="744.5,-593.18 741,-583.18 737.5,-593.18 744.5,-593.18"/>
</a>
</g>
<g id="a_edge16&#45;label"><a xlink:title="runtime.wakep &#45;&gt; runtime.startm (4.52kB)">
<text text-anchor="middle" x="768.5" y="-604.8" font-family="Times,serif" font-size="14.00"> 4.52kB</text>
</a>
</g>
</g>
</g>
</g></svg>
